<?xml version="1.0" encoding="UTF-8"?>
<svg xmlns="http://www.w3.org/2000/svg" width="518" height="600" viewBox="0 0 518 600">
<title>rtfreporter</title>
<polygon points="259.00,4.00 2.66,152.00 2.66,448.00 259.00,596.00 515.34,448.00 515.34,152.00" fill="#4fa3e0"/>
<polygon points="259.00,30.00 25.17,165.00 25.17,435.00 259.00,570.00 492.83,435.00 492.83,165.00" fill="#1f4e79"/>
<g transform="translate(259.00 304.00) scale(1.45)">
<rect x="-85.00" y="-106.00" width="184.00" height="230.00" rx="14.00" fill="#163a5c"/>
<rect x="-92.00" y="-115.00" width="184.00" height="230.00" rx="14.00" fill="#f7f9fc"/>
<line x1="-45.00" y1="-82.00" x2="45.00" y2="-82.00" stroke="#4fa3e0" stroke-width="16.00" stroke-linecap="round"/>
<line x1="-28.00" y1="-58.00" x2="28.00" y2="-58.00" stroke="#a9bdd2" stroke-width="10.00" stroke-linecap="round"/>
<line x1="-68.00" y1="-30.00" x2="68.00" y2="-30.00" stroke="#1f4e79" stroke-width="6.00" stroke-linecap="round"/>
<line x1="-60.00" y1="-14.00" x2="-32.00" y2="-14.00" stroke="#1f4e79" stroke-width="9.00" stroke-linecap="round"/>
<line x1="-10.00" y1="-14.00" x2="10.00" y2="-14.00" stroke="#1f4e79" stroke-width="9.00" stroke-linecap="round"/>
<line x1="40.00" y1="-14.00" x2="60.00" y2="-14.00" stroke="#1f4e79" stroke-width="9.00" stroke-linecap="round"/>
<line x1="-68.00" y1="2.00" x2="68.00" y2="2.00" stroke="#1f4e79" stroke-width="6.00" stroke-linecap="round"/>
<line x1="-60.00" y1="22.00" x2="-28.00" y2="22.00" stroke="#a9bdd2" stroke-width="10.00" stroke-linecap="round"/>
<line x1="-8.00" y1="22.00" x2="8.00" y2="22.00" stroke="#a9bdd2" stroke-width="10.00" stroke-linecap="round"/>
<line x1="42.00" y1="22.00" x2="58.00" y2="22.00" stroke="#a9bdd2" stroke-width="10.00" stroke-linecap="round"/>
<line x1="-60.00" y1="50.00" x2="-28.00" y2="50.00" stroke="#a9bdd2" stroke-width="10.00" stroke-linecap="round"/>
<line x1="-8.00" y1="50.00" x2="8.00" y2="50.00" stroke="#a9bdd2" stroke-width="10.00" stroke-linecap="round"/>
<line x1="42.00" y1="50.00" x2="58.00" y2="50.00" stroke="#a9bdd2" stroke-width="10.00" stroke-linecap="round"/>
<line x1="-60.00" y1="78.00" x2="-28.00" y2="78.00" stroke="#a9bdd2" stroke-width="10.00" stroke-linecap="round"/>
<line x1="-8.00" y1="78.00" x2="8.00" y2="78.00" stroke="#a9bdd2" stroke-width="10.00" stroke-linecap="round"/>
<line x1="42.00" y1="78.00" x2="58.00" y2="78.00" stroke="#a9bdd2" stroke-width="10.00" stroke-linecap="round"/>
<line x1="-68.00" y1="96.00" x2="68.00" y2="96.00" stroke="#1f4e79" stroke-width="6.00" stroke-linecap="round"/>
</g>
</svg>
